<?xml version="1.0" standalone="no"?>
<!DOCTYPE svg PUBLIC "-//W3C//DTD SVG 20010904//EN"
 "http://www.w3.org/TR/2001/REC-SVG-20010904/DTD/svg10.dtd">
<svg version="1.0" xmlns="http://www.w3.org/2000/svg"
 width="418.000000pt" height="418.000000pt" viewBox="0 0 418.000000 418.000000"
 preserveAspectRatio="xMidYMid meet">
<metadata>
Created by potrace 1.14, written by Peter Selinger 2001-2017
</metadata>
<g transform="translate(0.000000,418.000000) scale(0.100000,-0.100000)"
fill="#000000" stroke="none">
<path d="M475 4163 c-206 -38 -358 -162 -436 -358 l-24 -60 -2 -1645 -2 -1645
24 -73 c46 -143 145 -257 280 -322 44 -21 105 -43 135 -48 64 -12 3258 -10
3303 2 207 52 368 219 410 423 9 46 12 432 11 1664 0 1508 -1 1608 -18 1664
-59 198 -218 350 -409 389 -49 11 -393 13 -1657 13 -877 0 -1604 -2 -1615 -4z"/>
</g>
</svg>
